<?xml version="1.0" standalone="no"?>
<!DOCTYPE svg PUBLIC "-//W3C//DTD SVG 20010904//EN"
 "http://www.w3.org/TR/2001/REC-SVG-20010904/DTD/svg10.dtd">
<svg version="1.0" xmlns="http://www.w3.org/2000/svg"
 width="1024.000000pt" height="1024.000000pt" viewBox="0 0 1024.000000 1024.000000"
 preserveAspectRatio="xMidYMid meet">
<metadata>
Created by potrace 1.14, written by Peter Selinger 2001-2017
</metadata>
<g transform="translate(0.000000,1024.000000) scale(0.100000,-0.100000)"
fill="#000000" stroke="none">
<path d="M380 8304 c-50 -22 -218 -195 -233 -241 -11 -30 -13 -621 -12 -2958
1 -2683 2 -2922 17 -2950 9 -16 57 -70 105 -118 69 -68 99 -91 134 -101 35
-10 484 -12 2209 -11 1345 1 2174 5 2188 11 44 18 202 186 230 244 l26 55 0
685 c0 614 -2 688 -16 715 -26 48 -199 211 -237 224 -24 8 -386 11 -1287 11
l-1254 0 0 195 0 195 33 1 c17 0 433 1 924 1 618 1 899 5 917 12 36 15 211
191 230 231 14 29 16 110 16 639 0 498 -3 612 -14 639 -8 18 -52 68 -97 113
-139 133 -5 118 -1069 120 -509 1 -928 2 -932 3 -5 0 -8 80 -8 176 0 96 3 176
8 176 4 1 549 2 1212 4 809 1 1213 5 1230 12 28 12 181 160 226 218 l29 38 0
696 c0 383 -3 708 -8 723 -10 36 -194 224 -238 243 -29 12 -320 14 -2164 14
-1873 0 -2134 -2 -2165 -15z"/>
<path d="M5675 8303 c-45 -23 -214 -198 -231 -238 -21 -50 -21 -5848 0 -5898
16 -39 188 -214 225 -229 34 -15 1558 -18 1616 -4 30 7 62 31 132 99 51 50
100 106 109 126 16 32 17 109 18 876 l1 840 836 5 c819 5 837 5 860 25 80 71
195 196 210 230 17 38 19 80 19 698 0 555 -2 663 -15 693 -19 46 -184 210
-231 230 -33 14 -139 16 -859 16 l-822 0 1 302 1 301 1140 0 1140 0 33 24 c48
34 201 191 221 226 14 27 16 99 17 720 1 452 -2 699 -9 719 -14 41 -194 222
-239 241 -33 13 -266 15 -2090 15 -1853 -1 -2056 -2 -2083 -17z"/>
</g>
</svg>
